<svg xmlns="http://www.w3.org/2000/svg"
    width="798.48pt"
    height="798.48pt"
    viewBox="0 0 798.48 798.48">
  <style>
    path {
      fill: black;
    }
    @media (prefers-color-scheme: dark) {
      path {
        fill: white;
      }
    }
  </style>
<defs/>
<g id="svgg" transform="matrix(2.16 0 0 2.16 0 46.08)" fill="none">
  <path id="path0" transform="translate(30.769, 7.43699708437379)" fill="#000000" fill-rule="evenodd" stroke="#000000" stroke-opacity="0" stroke-width="0" stroke-linecap="square" stroke-linejoin="bevel" d="M194.156 4.759C155.55 11.817 148.725 17.319 129.457 56.905C119.872 76.6 108.429 88.418 88.091 99.63L76.345 106.105L74.702 85.102C72.699 59.492 74.417 48.541 82.265 36.899C89.659 25.93 87.321 22.342 78.599 31.272C75.074 34.881 62.476 44.121 50.603 51.805C23.41 69.406 19.999 75.325 21.321 102.622C23.47 146.985 22.656 153.034 10.906 180.016C4.908 193.792 0 206.866 0 209.07C0 215.137 5.804 211.954 6.701 205.395C9.244 186.8 19.205 172.561 35.755 163.864C53.715 154.426 62.104 145.043 70.044 125.505C77.432 107.328 79.357 106.964 95.896 120.611C123.441 143.34 148.257 146.55 202.367 134.383C230.397 128.08 232.865 126.518 224.852 120.149C210.628 108.843 189.54 95.09 177.515 89.277L164.497 82.985L170.832 80.077C179.024 76.316 186.022 78.213 200.377 88.088C236.572 112.986 254.387 114.723 334.32 101.15C362.019 96.447 373.635 91.971 358.144 91.971C348.525 91.971 334.454 84.206 314.793 68.046C273.692 34.266 240.298 33.262 194.437 64.43C179.288 74.725 176.907 75.261 185.111 66.527C195.286 55.696 224.852 6.891 224.852 0.926003C224.852 -0.748997 223.066 -0.525997 194.156 4.759M214.34 10.906C204.936 36.006 173.685 75.403 163.179 75.403C159.946 75.403 149.615 77.533 140.219 80.137C118.185 86.243 117.121 86.135 122.659 78.358C125.21 74.775 132.365 61.87 138.559 49.678C153.67 19.937 165.447 12.457 203.551 8.403C208.107 7.918 212.747 7.351 213.863 7.143C214.979 6.935 215.193 8.628 214.34 10.906M69.823 77.936C69.823 108.794 69.475 111.43 65.089 113.84C62.485 115.27 52.9 123.638 43.787 132.435L27.219 148.429L26.989 133.809C26.863 125.769 26.44 111.186 26.05 101.402C25.145 78.728 28.657 71.671 46.657 59.996C63.871 48.831 69.823 44.916 69.823 44.758C69.823 44.69 69.823 59.62 69.823 77.936M278.728 50.162C282.975 51.702 293.448 58.278 302.001 64.774C310.554 71.271 322.523 80.189 328.599 84.592L339.645 92.598L314.793 91.241C296.836 90.26 281.404 87.53 259.172 81.399C242.249 76.732 221.678 71.708 213.459 70.233L198.515 67.553L205.907 62.873C228.881 48.326 259.116 43.049 278.728 50.162M234.665 80.197C274.789 90.888 300.789 96.588 310.059 96.726C325.837 96.96 311.814 100.684 284.024 103.639C247.209 107.554 233.482 104.355 205.111 85.25C184.018 71.046 193.949 69.348 234.665 80.197M139.967 92.028C121.85 100.249 93.28 106.621 98.66 101.24C103.276 96.624 131.145 87.486 140.829 87.413L150.296 87.342L139.967 92.028M179.882 95.575C198.215 104.798 221.378 123.031 217.51 125.196C211.052 128.81 162.996 136.941 148.401 136.89C131.192 136.829 118.347 131.705 100.086 117.617C87.686 108.05 85.134 101.717 95.601 106.486C102.546 109.65 125.26 104.188 145.562 94.471C160.813 87.172 163.338 87.253 179.882 95.575M66.272 123.666C66.272 134.12 32.141 167.504 26.856 162.219C24.829 160.192 36.557 145.197 50.791 131.616C63.149 119.825 66.272 118.221 66.272 123.666"/>
 </g>
</svg>
