<?xml version="1.0" standalone="no"?>
<!DOCTYPE svg PUBLIC "-//W3C//DTD SVG 20010904//EN"
 "http://www.w3.org/TR/2001/REC-SVG-20010904/DTD/svg10.dtd">
<svg version="1.0" xmlns="http://www.w3.org/2000/svg"
 width="700.000000pt" height="700.000000pt" viewBox="0 0 700.000000 700.000000"
 preserveAspectRatio="xMidYMid meet">
<metadata>
Created by potrace 1.14, written by Peter Selinger 2001-2017
</metadata>
<g transform="translate(0.000000,700.000000) scale(0.100000,-0.100000)"
fill="#000000" stroke="none">
<path d="M4700 6443 c-47 -7 -119 -19 -160 -28 -41 -8 -91 -17 -110 -20 -121
-20 -170 -29 -325 -61 -11 -2 -36 -7 -55 -10 -19 -3 -74 -17 -122 -30 -418
-115 -564 -256 -844 -817 -147 -293 -232 -423 -368 -565 -72 -75 -202 -181
-303 -246 -95 -61 -375 -217 -381 -212 -2 3 -5 20 -7 38 -5 51 -17 208 -20
263 -2 28 -7 86 -10 130 -4 44 -8 145 -9 225 -5 304 32 455 160 656 72 113 97
194 59 194 -18 0 -84 -47 -130 -92 -61 -60 -295 -233 -514 -380 -247 -165
-325 -224 -398 -298 -102 -104 -151 -205 -172 -352 -9 -62 -7 -369 4 -543 8
-122 8 -465 1 -545 -22 -232 -56 -344 -217 -726 -99 -236 -181 -451 -194 -512
-5 -23 -2 -40 9 -57 21 -32 51 -23 82 25 25 37 27 44 44 140 18 105 46 192 93
285 93 187 228 323 439 441 173 97 269 165 358 254 129 128 196 239 319 525
121 280 163 288 427 80 60 -47 117 -92 127 -101 104 -86 321 -203 461 -249
170 -54 274 -69 501 -70 183 0 343 8 409 21 11 2 36 6 56 9 20 3 46 7 59 10
13 2 42 7 65 9 35 5 80 13 216 40 39 8 245 55 360 82 143 33 256 73 286 100
42 40 21 67 -151 198 -102 77 -410 286 -557 378 -61 38 -233 128 -370 195
l-118 57 70 32 c128 61 206 69 313 33 79 -26 136 -58 327 -184 187 -123 275
-175 395 -230 82 -39 220 -89 270 -99 11 -3 40 -9 65 -15 71 -16 100 -21 175
-29 134 -14 560 -6 665 12 14 3 54 8 90 11 36 4 76 8 90 10 88 10 137 17 150
20 8 2 38 6 65 10 28 3 91 12 140 20 50 7 108 16 130 20 23 3 52 8 65 10 14 3
85 15 158 26 l132 22 0 73 c0 41 -3 74 -7 75 -18 3 -86 7 -208 13 -71 4 -157
8 -190 11 -33 2 -100 7 -150 10 -49 3 -101 8 -115 10 -14 2 -50 7 -81 10 -31
3 -67 8 -80 10 -13 3 -44 8 -69 11 -25 3 -63 10 -85 14 -22 5 -55 12 -74 15
-19 3 -98 21 -175 39 -132 32 -218 54 -411 106 -44 12 -105 28 -135 36 -30 8
-62 17 -70 19 -8 1 -89 21 -180 43 -150 37 -404 91 -505 107 -22 3 -58 10 -80
14 l-40 7 70 45 c177 115 317 184 495 244 88 30 250 70 324 80 287 38 522 15
680 -66 34 -17 71 -37 83 -43 13 -6 23 -14 23 -18 0 -5 5 -8 11 -8 16 0 172
-109 409 -286 118 -88 293 -218 388 -287 l172 -127 0 65 0 65 -42 26 c-134 83
-206 136 -458 335 -278 220 -528 356 -770 419 -59 16 -63 17 -190 36 -37 5
-261 5 -290 0 -14 -3 -41 -7 -60 -10 -66 -8 -205 -45 -301 -79 -197 -72 -354
-155 -628 -334 -183 -120 -249 -158 -259 -149 -3 3 14 27 37 53 176 201 425
575 656 988 113 201 164 323 138 326 -5 0 -17 2 -28 3 -11 1 -58 -4 -105 -11z
m-50 -149 c0 -15 -18 -68 -40 -119 -185 -421 -636 -1006 -866 -1123 -23 -11
-65 -23 -95 -26 -83 -8 -234 -41 -442 -97 -104 -27 -217 -56 -251 -63 -60 -12
-106 -7 -106 12 0 5 19 38 42 73 71 110 125 205 230 403 240 454 320 570 483
696 150 116 408 197 745 235 25 3 59 7 75 10 17 2 62 7 100 11 39 3 72 8 74
10 2 2 15 4 28 4 18 0 23 -5 23 -26z m-2746 -1221 c-1 -285 -4 -549 -8 -586
-9 -91 -29 -148 -62 -172 -145 -107 -258 -209 -613 -552 -64 -61 -117 -110
-119 -108 -2 1 -5 97 -7 211 -2 115 -7 301 -11 414 -12 330 -9 515 10 595 25
107 69 187 144 263 80 81 90 89 262 202 279 184 395 258 400 255 3 -2 5 -237
4 -522z m2596 -17 c89 -13 361 -77 650 -152 306 -79 490 -125 514 -130 16 -3
32 -7 36 -9 3 -2 17 -6 31 -9 13 -2 56 -12 94 -21 39 -9 81 -19 95 -21 14 -3
66 -14 115 -25 149 -32 315 -58 410 -64 108 -7 141 -13 129 -25 -12 -11 -108
-35 -220 -54 -92 -16 -104 -18 -209 -31 -33 -3 -71 -9 -85 -11 -14 -2 -56 -6
-95 -10 -38 -3 -81 -7 -94 -9 -38 -7 -227 -18 -319 -19 -372 -6 -634 80 -1026
338 -230 151 -303 231 -236 259 14 6 153 1 210 -7z m-1231 -325 c-217 -97
-470 -181 -618 -206 -19 -3 -38 -8 -41 -10 -18 -11 -159 -15 -165 -5 -23 38
176 133 455 217 169 51 279 70 405 72 l120 1 -156 -69z m516 7 c75 -26 262
-120 378 -190 269 -163 547 -391 547 -450 0 -17 -147 -63 -300 -92 -14 -3 -61
-12 -104 -21 -44 -8 -91 -17 -105 -20 -14 -3 -35 -7 -46 -9 -11 -2 -56 -9
-100 -16 -75 -11 -94 -14 -155 -25 -14 -2 -79 -11 -145 -19 -441 -57 -649 -34
-915 99 -182 91 -383 235 -507 364 -94 97 -83 128 29 91 47 -16 98 -25 143
-26 74 -1 245 26 330 52 27 9 79 25 115 36 79 24 261 95 350 136 180 83 202
91 265 107 63 16 143 9 220 -17z m-1957 -580 c16 -21 6 -85 -22 -141 -89 -182
-437 -533 -611 -619 -27 -13 -57 -24 -65 -23 -8 1 -21 3 -27 3 -53 7 57 177
244 381 149 161 329 332 402 381 49 33 64 36 79 18z"/>
</g>
</svg>
