<svg xmlns="http://www.w3.org/2000/svg" enable-background="new 0 0 24 24" viewBox="0 0 24 24">
    <path d="M6.652,12.358c-0.117,0-0.236-0.026-0.346-0.081c-0.143-0.071-1.393-0.77-1.393-3.355c0-0.222,0.01-0.448,0.021-0.674c0.028-0.606,0.058-1.233-0.179-1.481C4.593,6.597,4.23,6.507,3.707,6.507c-0.94,0-1.262,0.514-1.295,0.573C2.209,7.434,1.757,7.569,1.399,7.377C1.042,7.184,0.897,6.751,1.081,6.388c0.259-0.513,1.104-1.381,2.626-1.381c0.971,0,1.669,0.237,2.134,0.724c0.68,0.712,0.633,1.708,0.592,2.587C6.423,8.521,6.413,8.724,6.413,8.922c0,1.619,0.593,2.028,0.599,2.032c0.371,0.185,0.503,0.625,0.318,0.996C7.2,12.211,6.93,12.358,6.652,12.358z" />
    <path d="M3.707 12.355C1.911 12.355 1 11.611 1 10.142c0-1.454 1.361-2.214 2.707-2.214 1.704 0 2.382.625 2.501.751.24.254.268.632.09.915.223.208.305.54.18.838C6.445 10.51 5.651 12.355 3.707 12.355zM3.707 9.428C3.24 9.428 2.5 9.622 2.5 10.142c0 .415 0 .714 1.207.714.942 0 1.383-.993 1.388-1.003C5.11 9.813 5.129 9.777 5.151 9.743 5.148 9.74 5.146 9.738 5.144 9.736 5.103 9.705 4.71 9.428 3.707 9.428zM14.446 12.355L14.446 12.355c-.323 0-.609-.207-.711-.512l-1.245-3.727-1.245 3.727c-.103.306-.389.512-.711.512s-.609-.207-.711-.512L7.865 5.988C7.733 5.595 7.946 5.17 8.338 5.039 8.733 4.907 9.157 5.12 9.288 5.512l1.245 3.727 1.245-3.727C11.88 5.207 12.167 5 12.489 5s.609.207.711.512l1.246 3.728 1.245-3.721c.131-.393.556-.607.949-.474.393.132.605.557.474.949l-1.957 5.848C15.055 12.149 14.769 12.355 14.446 12.355zM20.855 12.355h-1.518c-.414 0-.75-.336-.75-.75s.336-.75.75-.75h1.518c.368 0 .667-.298.667-.664 0-.293-.183-.546-.456-.636l-.997-.332c-.886-.295-1.482-1.12-1.482-2.053 0-1.193.972-2.164 2.167-2.164h1.518c.414 0 .75.336.75.75s-.336.75-.75.75h-1.518c-.368 0-.667.298-.667.664 0 .286.183.539.456.629l.997.332c.887.295 1.482 1.12 1.482 2.053C23.022 11.385 22.05 12.355 20.855 12.355zM11.755 20c-7.805 0-11.468-5.114-11.62-5.332-.237-.34-.154-.807.185-1.044.339-.236.807-.154 1.044.185.134.19 3.396 4.691 10.391 4.691 5.158 0 9.463-3.781 9.506-3.819.31-.276.784-.248 1.059.062.275.309.248.783-.062 1.059C22.066 15.973 17.478 20 11.755 20z" />
    <path d="M22.25,18.553c-0.06,0-0.12-0.007-0.18-0.022c-0.402-0.099-0.648-0.505-0.548-0.908l0.702-2.843l-2.795,0.7c-0.403,0.098-0.809-0.144-0.91-0.545s0.144-0.809,0.545-0.91l4.004-1.002c0.255-0.063,0.525,0.011,0.711,0.196c0.187,0.186,0.262,0.456,0.199,0.711l-1,4.053C22.893,18.325,22.587,18.553,22.25,18.553z" />
</svg>