<svg xmlns="http://www.w3.org/2000/svg" enable-background="new 0 0 24 24" viewBox="0 0 24 24"><path d="M16.872,24c-0.074,0-0.149-0.017-0.218-0.05l-3.424-1.661c-0.173-0.083-0.282-0.259-0.282-0.451s0.11-0.367,0.284-0.45c1.509-0.724,2.237-1.342,2.686-2.281c0.495-1.009,0.646-2.264,0.646-5.376V6.307c0-0.276,0.224-0.5,0.5-0.5h3.687c0.276,0,0.5,0.225,0.5,0.501v8.718c0,3.105-0.231,4.6-0.918,5.92c-0.659,1.319-1.536,2.134-3.232,2.999C17.028,23.982,16.95,24,16.872,24z M14.559,21.822l2.306,1.118c1.355-0.72,2.042-1.378,2.577-2.448c0.605-1.166,0.809-2.543,0.809-5.466V6.808l-2.687-0.001v6.925c0,3.331-0.167,4.634-0.745,5.812C16.373,20.475,15.708,21.158,14.559,21.822z"/><path d="M10.097 18.921c-4.807 0-7.347-2.267-7.347-6.557 0-4.146 2.687-6.825 6.844-6.825.418 0 .765.023 1.104.077V.5c0-.276.224-.5.5-.5h3.687c.276 0 .5.224.5.5v17.409c0 .239-.17.445-.405.491C13.065 18.77 11.651 18.921 10.097 18.921zM9.594 6.54c-3.55 0-5.844 2.287-5.844 5.825 0 3.687 2.136 5.557 6.347 5.557 1.375 0 2.643-.125 4.287-.427V1h-2.687v5.235c0 .155-.072.302-.195.396-.123.094-.283.127-.434.086C10.587 6.589 10.173 6.54 9.594 6.54zM14.884 17.909h.01H14.884zM9.93 15.892c-2.174 0-3.421-1.312-3.421-3.601 0-2.33 1.285-3.722 3.438-3.724.001 0 .001 0 .002 0H9.95c.007 0 .016 0 .022 0 .541.002.99.08 1.393.224.199.071.332.259.332.471v6.032c0 .25-.184.46-.431.495C10.734 15.864 10.372 15.892 9.93 15.892zM9.955 9.567c-.001 0-.001 0-.002 0-2.021 0-2.444 1.481-2.444 2.724 0 1.726.814 2.601 2.421 2.601.268 0 .497-.011.768-.039V9.638c-.224-.05-.468-.064-.7-.073C9.983 9.566 9.969 9.567 9.955 9.567zM20.75 4.878h-3.687c-.276 0-.5-.224-.5-.5V.52c0-.276.224-.5.5-.5h3.687c.276 0 .5.224.5.5v3.858C21.25 4.655 21.026 4.878 20.75 4.878zM17.563 3.878h2.687V1.02h-2.687V3.878z"/></svg>