<svg xmlns="http://www.w3.org/2000/svg" enable-background="new 0 0 24 24" viewBox="0 0 24 24"><path d="M21.25 24h-7.031c-.133 0-.261-.053-.354-.147l-6.17-6.201c-.194-.195-.194-.511 0-.706l6.171-6.188c.094-.094.222-.148.355-.148h7.029c.202 0 .384.122.462.308.077.187.035.401-.107.544l-5.81 5.838 5.81 5.846c.143.144.185.358.107.544C21.634 23.878 21.452 24 21.25 24zM14.427 23h5.621l-5.313-5.346c-.194-.195-.194-.51 0-.705l5.312-5.338h-5.619L8.755 17.3 14.427 23zM6.278 16.046c-.133 0-.261-.053-.354-.147l-3.528-3.546c-.194-.195-.194-.51 0-.706l11.457-11.5c.125-.125.3-.17.459-.136h6.923c.202 0 .384.122.462.308.077.187.035.401-.107.544L6.633 15.899C6.539 15.993 6.412 16.046 6.278 16.046zM3.456 12l2.823 2.837L20.032 1.011h-5.629L3.456 12z"/></svg>