<svg viewBox="0 0 1037 346" fill-rule="evenodd" width="100%" preserveAspectRatio="xMidYMid" xmlns="http://www.w3.org/2000/svg">
    <path xmlns="http://www.w3.org/2000/svg" d="M343 2c2.844 15.981 1 37.265 1 55v104h-9V11H11v324h150v10H57c-17.728 0-39.029 1.862-55-1-2.984-16.744-1-40.346-1-59V60C1 41.326-1.024 18.9 2 2 18.744-.984 42.346 1 61 1h224c18.674 0 41.1-2.024 58 1zm70 12l15 3-6 25h39v15h-20l-1 42h25v14h-26c.025 5.656-1.071 11.162-2 16h1c1.381-1.759.443-2.605 2-1 2.435 1.572.608 1.12 2 3l4 3v2l2 1 1 3 4 3v2l3 2v2l3 2v2l3 2v2l3 2v2h1l3 5h-1c-2.732 4.682-8.305 6.434-11 11h-1l-1-3h-1v-2l-2-1v-2l-2-1v-2h-1l-1-3-2-1v-2l-2-1v-2l-2-1v-2l-3-2v-2l-2-1-1-3c-1.135.844-.145-.127-1 1h-1l-1 7h-1v4h-1v2h-1v3h-1v3h-1l-2 6h-1v2h-1v2h-1l-2 6-2 1-1 4-2 1v2l-3 2v2l-2 1v2l-2 1c-1.158 1.258-1.695 2.882-3 4v1h-3c-2.627-5.535-9.139-7.693-10-14l4-3v-2l4-3v-2l3-2v-2l2-1v-2l2-1 1-4 2-1 1-4c6.815-12.66 11.79-29.797 12-49h-31V99h32l1-42h-10c-.516 3.063-2.067 5.66-3 8l-1 6h-1v2h-1v2h-1v2h-1v3h-1v2h-1l-1 3c-2.01-.574-.865.12-2-1h-2l-2-3h-2l-1-2-3-1v-4c1.757-1.6.881-1.927 2-4h1v-2h1v-3h1l1-4h1v-3h1v-3c5.282-12.13 9.116-26.28 12-41zm229 0c2.291.337 12.864 1.945 14 3h1v3h-1l-5 22h39v15h-20l-1 42h26v14h-27c.083 5.24-.507 12.079-2 16h1c.903-1.15.718-1.176 2-2v1l3 2v2l4 3v2l3 2v2l4 3v2l3 2v2l3 2v2l3 2v2l2 1 1 3h1c1.173 1.482 1.4 1.775 2 4-5.08 2.943-7.404 8.347-13 11l-1-3h-1v-2l-2-1v-2l-2-1-1-4-2-1v-2l-3-2v-2l-2-1v-2l-2-1v-2l-2-1v-2c-.405-.605-1.332-.801-2-2h-1v2l-8 23h-1l-1 4h-1v2l-2 1-2 6-2 1v2h-1l-1 3-2 1v2l-3 2v2l-2 1-3 5h-3v-2c-2.974-1.638-9.514-7.899-10-12 4.28-2.561 6.21-6.899 9-11l2-1v-2l3-2 1-4 2-1 2-6c7.038-13.176 11.804-28.854 12-49h-30V99h31v-6h1V57h-10c-.378 4.794-2.578 7.508-4 11v3h-1v2h-1v3h-1l-3 9c-2.242-.253-2.652-.088-4-1v-1h-2l-1-2h-2v-1c-1.493-1.175-1.778-1.376-4-2 .219-6.634 3.975-9.437 6-14l1-6h1v-2h1l1-6h1v-2h1v-4h1l2-10c2.058-5.708 4.198-12.98 5-20zm279 9c.031 6.217 1.926 10.595 3 16l-26 2v32h27v15h-27v23h1c1.124-2.164 3.003-3.695 5-5v1c4.016 1.866 6.951 5.116 10 8l1 2h2l1 2 5 4c2.086 2.084 3.338 4.436 6 6v1h-1l-10 11c-1.135-.844-.145.127-1-1-3.071-1.736-17.129-15.699-18-19h-1v82h-16v-62c0-4.833 1.106-19.593-1-22l-5 15h-1l-3 9-2 1-2 6-2 1v2h-1v2h-1v2l-2 1-5 9c-1.135-.844-.145.127-1-1-1.76-1.792-5.639-14.406-6-18 3.229-2.199 3.754-5.767 6-9l3-2 1-4 2-1v-2h1v-2h1v-2h1v-2l2-1v-2h1v-2h1v-3h1l1-4h1v-3h1l1-4h1v-3h1l1-7c.625-1.732 2.188-5.037 3-7h-27V73h29V43l-25 2c.054-6.576-1.917-9.889-3-15l67-7zm-455 2h110v15H466V25zm229 0h110v15H695V25zm241 1h85v154h15v15H915v-15h21V26zm15 15v37h54V41h-54zM473 62h93v66h-93V62zm230 0h92v66h-92V62zM489 76v37h62V76h-62zm229 0v37h62V76h-62zm233 16v37h54V92h-54zm-455 84l-17-37c1.135-.844.145.127 1-1l13-4v1c3.387 2.832 3.836 6.939 6 11h1v2h1v2h1v2h1v2h1l1 4 2 1v2h1v2h1l2 6h-1c-1.712 1.961-10.844 6.317-14 7zm44 5h37v15H459v-15h64c.863-4.758 4.026-8.33 6-12l3-9h1v-2h1v-2h1v-2h1v-2h1v-2h1v-2h1v-2h1l5-12h3c1.984 1.926 9.941 3.756 13 5-.574 2.01.12.865-1 2-.714 3.554-2.624 4.503-4 7l-1 4h-1l-1 4h-1v2h-1v2h-1v2h-1v2h-1l-1 4-2 1v2c-1.77 3.143-4.036 5.873-5 10zm183-47l7 16 2 1v2h1v2h1v2h1v2h1v2c1.597 2.991 3.433 4.558 4 9-6.365.564-9.22 4.649-15 6l-2-6h-1v-2h-1v-3h-1v-2h-1l-1-4h-1v-2h-1v-2h-1v-2h-1v-2h-1v-2h-1v-2h-1l-1-5h-1l-1-3h1v-1l6-1v-1c2.556-1.197 4.848-1.695 8-2zm51 0c5.728.411 11.288 3.009 16 5-.804 4.139-3.31 6.877-5 10l-1 4-2 1-1 4h-1v2h-1v2h-1v2h-1v2h-1l-1 4h-1l-1 4c-1.471 2.678-3.078 3.165-4 7h37v15H689v-15h63l22-47zm177 9v37h54v-37h-54z" fill="currentColor"></path>
    <path xmlns="http://www.w3.org/2000/svg" d="M199 196h94c16.153 0 35.572-1.587 50 1 1.403 3.85 1 10.619 1 16v130c-8.413 4.304-31.664 2-44 2H198c-4.304-8.414-2-31.664-2-44V198c1.281-.59 2.141-.986 3-2zm6 10v130h130V206H205z" fill="#a10712"></path>
    <path xmlns="http://www.w3.org/2000/svg" d="M394 263c9.638-.133 26.431-1.728 34 1v1h3v1l4 1v1h2v1c1.792 1.428 2.389 2.264 5 3 .615 2.243.838 2.484 2 4h1v2h1l2 6h1v4h1c1.034 3.38-.502 6.235 1 9v1h-1c-1.146 6.111.133 10.193-2 15h-1l-1 4-2 1v2c-9.342 13.195-27.583 12.182-50 12v-69zm70 0h6v47l3 9c2.436 1.358 3.304 3.825 5 5 1.669 1.157 2.292-.017 4 2l10 1c5.279-1.601 11.612-4.469 13-10 3.241-3.252 2.998-10.389 3-17v-37h6c.135 12.242 1.838 34.123-1 44v7h-1c-.975 2.704-.605 5.802-2 8h-1c-1.157 1.529-1.38 1.751-2 4-2.241.623-2.481.837-4 2v1c-2.809 1.814-15.013 4.942-21 3v-1h-3v-1h-2v-1h-2v-1c-1.518-1.161-1.757-1.384-4-2-.771-3.088-2.773-4.6-4-7v-2h-1v-4h-1v-7c-3.055-10.661-.934-30.218-1-43zm119 69h-6l-7-19h-35l-7 19h-6l5-15h1v-2h1v-3h1l1-4h1v-3h1v-2h1v-3h1v-2h1v-3h1v-2h1v-3h1l1-4h1v-3h1v-2h1v-3h1v-2h1v-3h1l1-5h1c.631-1.244.954-4.433 2-5h5l28 69zm10-69h5l39 57h1v-57h5v69h-5v-2c-3.78-2.361-4.524-6.295-7-10l-2-1v-2l-3-2v-2l-2-1v-2l-2-1v-2l-3-2v-2h-1l-1-3-2-1v-2l-3-2v-2h-1l-1-3-2-1v-2l-3-2c-2.531-3.629-3.165-7.71-7-10v57h-5v-69zm70 0c15.969-.232 34.542-1.38 44 5l4 5 3 2v2l2 1v3h1v2h1c2.816 6.616 2.897 22.399 0 29h-1v2h-1l-1 4-2 1v2l-4 3-1 2-4 1-1 2c-8.021 4.184-27.575 3.18-40 3v-69zm71 0h5c-.208 16.953-2.123 39.667 3 52v3l2 1v2l7 5 11 1c4.899-1.486 10.694-3.808 12-9 2.908-2.581 1.689-4.864 3-9h1v-46h5c.376 21.6 4.242 61.764-12 66-2.869 3.473-19.298 4.616-23 1-18.597-4.638-14.199-43.151-14-67zm85 0h6l7 19h1v2h1v3h1v2h1l1 5h1v3h1v2h1v3h1l1 4h1v3h1v2h1v3h1v2h1v3h1l1 5h1c1.348 2.769 1.702 4.217 2 8h-5l-8-19h-34l-8 19h-5l6-18h1v-2h1l6-18h1l1-4h1v-3h1v-2h1v-3h1v-2h1v-3h1v-2h1v-3h1l3-9zm44 0h5v2c3.159 2.137 4.818 6.772 7 10l2 1v2l2 1v2l2 1v2l3 2v2h1l1 3 2 1v2l3 2v2h1l1 3 2 1v2l3 2v2l2 1c2.455 3.664 3.195 7.729 7 10v-56h6v69h-5l-2-4-2-1v-2l-2-1v-2l-2-1v-2l-3-2v-2h-1l-1-3-2-1v-2l-3-2v-2h-1l-1-3-2-1v-2l-3-2v-2l-2-1v-2h-1l-1-3-2-1v-2l-3-2-5-9h-1v57h-5v-69zm64 0h48v5h-1c-.565 2.24-.838 2.518-2 4h-1v2l-2 1v2l-2 1v2l-2 1v2l-3 2v2l-2 1v2h-1l-1 3-2 1v2l-3 2v2h-1l-1 3-2 1v2l-3 2v2l-2 1v2c-2.634 3.946-7.626 7.893-9 13h41v6h-50v-5c3.146-2.105 4.832-6.793 7-10l2-1v-2l2-1v-2l3-2v-2l2-1v-2h1l1-3 2-1v-2l3-2v-2h1l1-3 2-1v-2l3-2v-2l2-1v-2l2-1v-2l2-1v-2l2-1 1-3h1l1-3h-40v-5zm61 0h5c-.422 17.813-2.225 47.684 5 58h1l1 2h2l1 2h3v1c2.278.815 12.095 1.218 14 0v-1c16.606-3.585 12.219-41.145 12-62h5c.34 16.413 2.265 50.688-4 60l-2 1-4 5h-2v1h-2v1h-3v1c-4.316 1.363-16.348-.431-18-2-18.538-4.627-14.196-43.178-14-67zm-589 5v58c23.333.518 33.664 1.554 42-14h1l1-4h1v-4c4.735-15.038-6.257-33.408-19-34-2.812-2.521-19.711-2.079-26-2zm270 0v58c14.125.242 27.971.737 36-5l2-3h1v-2l3-2 1-4h1v-4h1v-5h1v-7h-1v-5h-1v-4h-1v-2c-1.383-2.623-3.954-4.958-6-7l-2-3c-7.979-5.344-21.631-5.229-35-5zm-102 40l-3-10h-1v-3h-1l-1-4h-1v-3c-2.33-5.238-5.626-10.666-7-17-1.139 1.139-.398.004-1 2-2.224 2.07-1.646 4.158-3 7h-1v3h-1l-1 4h-1v3h-1v2h-1v3h-1v2h-1v3h-1v2h-1v3h-1l-1 3h30zm254-36l-2 7h-1v3h-1v2h-1l-1 5h-1v3c-2.198 4.953-5.634 10.115-7 16h30l-14-36h-2z" fill="currentColor" opacity=".85"></path>
  </svg>