<svg xmlns="http://www.w3.org/2000/svg" enable-background="new 0 0 24 24" viewBox="0 0 24 24"><path d="M17.476,21H1.524c-0.552,0-1.046-0.282-1.321-0.756c-0.27-0.464-0.271-1.019-0.006-1.484L8.172,4.766C8.446,4.286,8.942,4,9.5,4s1.054,0.286,1.327,0.766l7.976,13.994c0.265,0.466,0.263,1.021-0.006,1.484C18.522,20.718,18.028,21,17.476,21z M9.5,5C9.306,5,9.135,5.098,9.041,5.262L1.066,19.256c-0.125,0.22-0.041,0.413,0.002,0.486C1.162,19.903,1.333,20,1.524,20h15.951c0.192,0,0.363-0.097,0.457-0.258c0.042-0.073,0.127-0.267,0.002-0.486L9.958,5.262C9.865,5.098,9.694,5,9.5,5z"/><path d="M22.589,21H8.411c-0.516,0-0.975-0.262-1.228-0.701c-0.245-0.424-0.244-0.931,0.001-1.354l7.089-12.246C14.527,6.262,14.985,6,15.5,6s0.973,0.262,1.227,0.698l7.089,12.245c0.246,0.425,0.246,0.932,0.001,1.355C23.564,20.738,23.105,21,22.589,21z M15.5,7c-0.074,0-0.257,0.02-0.361,0.2L8.049,19.445c-0.089,0.153-0.039,0.288,0,0.354C8.122,19.925,8.257,20,8.411,20h14.179c0.154,0,0.289-0.075,0.361-0.201c0.039-0.065,0.089-0.2,0-0.354L15.861,7.2C15.757,7.02,15.574,7,15.5,7z"/></svg>