<svg xmlns="http://www.w3.org/2000/svg" enable-background="new 0 0 24 24" viewBox="0 0 24 24"><path d="M8.5,16.5C8.224,16.5,8,16.276,8,16v-3.5C8,12.224,8.224,12,8.5,12h2c0.827,0,1.5,0.617,1.5,1.375s-0.673,1.375-1.5,1.375H9V16C9,16.276,8.776,16.5,8.5,16.5z M9,13.75h1.5c0.271,0,0.5-0.172,0.5-0.375S10.771,13,10.5,13H9V13.75z"/><path d="M11.5 16.5c-.117 0-.235-.041-.33-.124l-1.995-1.75c-.208-.183-.229-.498-.046-.706.183-.207.499-.228.706-.046l1.995 1.75c.208.183.229.498.046.706C11.777 16.442 11.639 16.5 11.5 16.5zM15.5 16.5c-.276 0-.5-.224-.5-.5v-2.803C15 13.104 14.873 13 14.703 13h-.905c-.17 0-.297.104-.297.197V16c0 .276-.224.5-.5.5s-.5-.224-.5-.5v-2.803c0-.66.582-1.197 1.297-1.197h.905C15.418 12 16 12.537 16 13.197V16C16 16.276 15.776 16.5 15.5 16.5z"/><path d="M15.469 15.188H13c-.276 0-.5-.224-.5-.5s.224-.5.5-.5h2.469c.276 0 .5.224.5.5S15.745 15.188 15.469 15.188zM23 16.5h-1.5c-.276 0-.5-.224-.5-.5s.224-.5.5-.5H23v-.812l-1 .062c-.551 0-1-.421-1-.938v-.875C21 12.421 21.449 12 22 12h1.5c.276 0 .5.224.5.5S23.776 13 23.5 13H22v.812l1-.062c.551 0 1 .421 1 .938v.875C24 16.079 23.551 16.5 23 16.5zM17 16.5c-.276 0-.5-.224-.5-.5v-3.5c0-.276.224-.5.5-.5s.5.224.5.5V16C17.5 16.276 17.276 16.5 17 16.5zM20 16.5h-1.5c-.276 0-.5-.224-.5-.5v-3.5c0-.276.224-.5.5-.5s.5.224.5.5v3h1c.276 0 .5.224.5.5S20.276 16.5 20 16.5zM5.259 16.5H.587c-.133 0-.26-.053-.354-.146-.189-.188-.16-.365-.097-.753.014-.085.727-4.25 3.723-6.64 4.877-3.892 9.945 1.136 9.996 1.188.185.188.193.485.019.683-.175.197-.472.226-.68.064-.032-.024-3.138-2.378-5.601-.79-2.487 1.602-1.848 5.772-1.841 5.814.023.145-.018.293-.113.404C5.544 16.436 5.405 16.5 5.259 16.5zM1.178 15.499L4.7 15.5c-.105-1.347-.09-4.663 2.352-6.235C7.684 8.857 8.336 8.65 8.974 8.577 7.605 8.313 6.035 8.505 4.483 9.742 2.218 11.55 1.382 14.595 1.178 15.499z"/><path d="M6 16.5c-.068 0-.138-.014-.204-.044l-.78-.35c-.252-.112-.365-.408-.251-.66.113-.252.408-.367.661-.252l.78.35c.252.112.365.408.251.66C6.373 16.39 6.191 16.5 6 16.5zM1.16 14.3c-.069 0-.139-.015-.206-.045l-.66-.3c-.251-.114-.363-.41-.249-.662.114-.252.409-.361.662-.248l.66.3c.251.114.363.41.249.662C1.532 14.191 1.35 14.3 1.16 14.3zM6.2 14.14c-.116 0-.231-.04-.326-.121l-.86-.739c-.209-.18-.233-.495-.054-.705.181-.209.497-.231.705-.053l.86.739c.209.18.233.495.054.705C6.48 14.081 6.341 14.14 6.2 14.14zM2.84 11.22c-.115 0-.231-.039-.325-.12l-.84-.72C1.465 10.2 1.44 9.885 1.62 9.675c.181-.21.496-.233.705-.055l.84.72c.21.18.234.495.055.705C3.121 11.16 2.98 11.22 2.84 11.22zM6.851 12.19c-.164 0-.325-.081-.42-.229l-.62-.96c-.15-.232-.083-.542.148-.691C6.19 10.158 6.5 10.228 6.65 10.459l.62.96c.15.232.083.542-.148.691C7.038 12.165 6.943 12.19 6.851 12.19zM4.971 9.3c-.164 0-.324-.08-.419-.228l-.52-.8C3.88 8.041 3.946 7.731 4.178 7.581c.231-.15.541-.085.691.146l.52.8C5.54 8.759 5.474 9.068 5.243 9.219 5.159 9.273 5.064 9.3 4.971 9.3zM8.21 10.89c-.209 0-.404-.132-.474-.341l-.34-1.01C7.308 9.277 7.449 8.994 7.71 8.906 7.976 8.82 8.256 8.959 8.344 9.221l.34 1.01c.088.262-.053.545-.314.633C8.316 10.881 8.263 10.89 8.21 10.89zM7.41 8.5c-.208 0-.403-.131-.474-.34l-.22-.65C6.628 7.248 6.768 6.965 7.03 6.876 7.289 6.79 7.575 6.927 7.664 7.189l.22.65C7.972 8.102 7.832 8.385 7.57 8.474 7.518 8.491 7.463 8.5 7.41 8.5zM10.11 10.15c-.276 0-.5-.224-.5-.5V9.09c0-.276.224-.5.5-.5s.5.224.5.5V9.65C10.61 9.927 10.386 10.15 10.11 10.15z"/><g><path d="M10.12,8.88c-0.276,0-0.5-0.224-0.5-0.5V7.71c0-0.276,0.224-0.5,0.5-0.5s0.5,0.224,0.5,0.5v0.67C10.62,8.656,10.396,8.88,10.12,8.88z"/></g></svg>