<svg xmlns="http://www.w3.org/2000/svg" enable-background="new 0 0 24 24" viewBox="0 0 24 24"><path d="M11.86,23.002c-0.515,0-1.019-0.143-1.596-0.423c-0.503-0.244-2.404-1.044-4.243-1.817c-2.049-0.862-4.168-1.754-4.81-2.064C0.582,18.393,0,18.032,0,17.467v-2.359c0-0.271,0.217-0.494,0.488-0.5c0.296,0.018,0.495,0.202,0.511,0.47c0.004-0.039,0.12,0.104,0.649,0.361c0.616,0.298,2.718,1.183,4.751,2.037c1.94,0.816,3.772,1.588,4.302,1.844c0.875,0.426,1.445,0.495,2.723-0.182c0.712-0.376,2.74-1.26,4.701-2.115c1.798-0.784,3.658-1.595,4.239-1.902c0.546-0.289,0.639-0.426,0.646-0.44c0.009-0.198,0.125-0.336,0.31-0.407c0.166-0.065,0.34-0.009,0.477,0.104c0.02,0.014,0.038,0.03,0.055,0.047c0.094,0.094,0.146,0.221,0.146,0.354l-0.001,2.325c0,0.565-0.561,0.94-1.165,1.261c-0.617,0.327-2.421,1.113-4.331,1.945c-1.935,0.844-3.935,1.716-4.609,2.072C13.105,22.797,12.476,23.002,11.86,23.002z M1,17.399c0.05,0.053,0.203,0.183,0.647,0.397c0.618,0.3,2.725,1.186,4.762,2.043c1.936,0.814,3.765,1.583,4.292,1.839c0.876,0.427,1.447,0.495,2.723-0.182c0.709-0.375,2.727-1.254,4.678-2.104c1.809-0.789,3.679-1.604,4.263-1.913c0.549-0.291,0.639-0.432,0.646-0.447l-0.006-1.122c-0.058,0.032-0.115,0.063-0.173,0.094c-0.615,0.325-2.408,1.107-4.308,1.936c-1.944,0.848-3.955,1.725-4.633,2.083c-1.442,0.763-2.355,0.813-3.627,0.197c-0.505-0.245-2.41-1.047-4.253-1.822c-2.045-0.86-4.159-1.749-4.8-2.06C1.141,16.303,1.069,16.268,1,16.231V17.399z M23.493,14.775h0.01H23.493z"/><path d="M11.86,19.002c-0.514,0-1.019-0.143-1.596-0.423c-0.503-0.244-2.4-1.042-4.234-1.813c-2.053-0.864-4.176-1.757-4.818-2.068C0.582,14.392,0,14.031,0,13.468v-2.359c0-0.271,0.217-0.493,0.488-0.5c0.296,0.003,0.494,0.201,0.511,0.47c0.004-0.039,0.12,0.104,0.648,0.359c0.617,0.3,2.718,1.184,4.749,2.038c1.941,0.816,3.775,1.588,4.305,1.845c0.876,0.425,1.447,0.494,2.723-0.183c0.712-0.376,2.74-1.26,4.701-2.115c1.798-0.784,3.658-1.595,4.239-1.902c0.545-0.289,0.637-0.426,0.646-0.44c0.009-0.169,0.093-0.286,0.238-0.371c0.134-0.077,0.286-0.06,0.425,0.001c0.066,0.024,0.128,0.063,0.179,0.114c0.094,0.094,0.146,0.221,0.146,0.354l-0.001,2.325c0,0.565-0.56,0.94-1.165,1.262c-0.615,0.325-2.408,1.107-4.308,1.935c-1.944,0.848-3.955,1.725-4.633,2.083C13.105,18.798,12.476,19.002,11.86,19.002z M1,13.399c0.05,0.053,0.204,0.183,0.648,0.397c0.618,0.301,2.729,1.188,4.77,2.047c1.932,0.812,3.756,1.58,4.283,1.835c0.876,0.427,1.446,0.495,2.724-0.182c0.711-0.376,2.739-1.26,4.7-2.114c1.798-0.784,3.658-1.595,4.239-1.902c0.549-0.291,0.639-0.433,0.646-0.448l-0.006-1.122c-0.058,0.032-0.115,0.063-0.173,0.094c-0.615,0.325-2.408,1.107-4.308,1.936c-1.944,0.848-3.955,1.725-4.633,2.083c-1.442,0.764-2.356,0.812-3.626,0.198c-0.506-0.245-2.413-1.048-4.257-1.823c-2.043-0.86-4.156-1.749-4.797-2.06C1.141,12.303,1.069,12.268,1,12.231V13.399z M23.492,10.776h0.01H23.492z"/><path d="M11.861,15.002c-0.514,0-1.018-0.143-1.594-0.422c-0.504-0.244-2.401-1.042-4.235-1.814c-2.053-0.863-4.176-1.757-4.818-2.068c-0.63-0.306-1.212-0.666-1.212-1.23V7.108c-0.027-0.588,0.59-0.918,1.196-1.16l0.105-0.041c5.146-2.046,8.346-3.303,9.257-3.635c1.539-0.559,2.155-0.574,3.471-0.086c0.606,0.226,2.493,0.979,4.378,1.729c1.877,0.749,3.751,1.496,4.348,1.718h0.001c0.384,0.144,1.154,0.431,1.229,1.032C23.995,6.702,24,6.74,24,6.777l-0.001,2.325c0,0.565-0.561,0.94-1.165,1.261c-0.615,0.325-2.408,1.107-4.308,1.936c-1.944,0.848-3.955,1.725-4.633,2.083C13.107,14.798,12.478,15.002,11.861,15.002z M1.01,9.445c0.034,0,0.185,0.131,0.641,0.352c0.618,0.301,2.729,1.188,4.77,2.047c1.932,0.813,3.756,1.581,4.283,1.836c0.877,0.425,1.448,0.491,2.724-0.183c0.711-0.376,2.739-1.26,4.7-2.115c1.798-0.784,3.658-1.595,4.239-1.902c0.549-0.291,0.639-0.432,0.646-0.447l-0.012-2.168C23,6.861,23,6.859,22.999,6.856c-0.054-0.044-0.204-0.141-0.591-0.285c-0.601-0.224-2.483-0.975-4.369-1.726c-1.876-0.748-3.753-1.497-4.356-1.722c-1.089-0.406-1.454-0.396-2.78,0.088c-0.628,0.229-2.74,1.044-9.229,3.624L1.568,6.878C1.201,7.024,1.055,7.127,1.001,7.173L1.002,9.45C1.003,9.447,1.006,9.445,1.01,9.445z M1.001,7.086v0.021C1.002,7.1,1.002,7.093,1.001,7.086z M22.993,6.753C22.993,6.753,22.993,6.753,22.993,6.753S22.993,6.753,22.993,6.753z"/><path d="M12.587,7.016c-0.176,0-0.34-0.093-0.431-0.246l-0.587-0.993L9.533,5.59c-0.232-0.021-0.419-0.201-0.45-0.433c-0.03-0.232,0.104-0.454,0.323-0.535l1.172-0.431l-0.244-0.457c-0.099-0.186-0.071-0.412,0.069-0.568c0.14-0.156,0.362-0.207,0.558-0.132l1.431,0.57l1.336-0.446c0.184-0.061,0.389-0.01,0.523,0.133c0.134,0.143,0.172,0.351,0.098,0.531l-0.214,0.523l1.06,0.404c0.216,0.082,0.347,0.302,0.317,0.531c-0.03,0.229-0.214,0.408-0.443,0.433l-1.687,0.179L13.05,6.705c-0.072,0.176-0.237,0.296-0.427,0.31C12.611,7.016,12.599,7.016,12.587,7.016z M11.674,4.781l0.242,0.022c0.16,0.015,0.303,0.105,0.385,0.244l0.204,0.347l0.064-0.157c0.069-0.17,0.228-0.288,0.41-0.308l0.091-0.01c-0.021-0.028-0.037-0.059-0.052-0.091c-0.052-0.12-0.055-0.255-0.009-0.377l-0.476,0.159c-0.112,0.035-0.233,0.033-0.344-0.01L11.789,4.44c0.003,0.068-0.008,0.136-0.033,0.2C11.736,4.692,11.709,4.74,11.674,4.781z"/><path d="M7.336,8.563C5.729,8.563,4,8.057,4,6.943s1.729-1.62,3.336-1.62s3.336,0.507,3.336,1.62S8.942,8.563,7.336,8.563z M5.003,6.943c0.085,0.181,0.886,0.62,2.333,0.62c1.479,0,2.281-0.457,2.337-0.631C9.617,6.78,8.814,6.323,7.336,6.323C5.887,6.323,5.087,6.762,5.003,6.943z"/><path d="M12.469 11.001c-.065 0-.132-.013-.194-.039L8.572 9.397c-.206-.087-.329-.3-.302-.521s.198-.398.419-.434l5.305-.83c.192-.03.393.059.499.226s.104.382-.007.547l-1.603 2.395C12.789 10.921 12.632 11.001 12.469 11.001zM10.578 9.159l1.705.721.737-1.103L10.578 9.159zM17.022 8.68c-.063 0-.127-.012-.187-.036L13.7 7.38c-.189-.076-.313-.26-.313-.464s.124-.388.313-.464l3.475-1.399c.119-.049.254-.049.373 0l3.139 1.264C20.876 6.393 21 6.576 21 6.78s-.124.388-.313.464l-3.478 1.399C17.149 8.668 17.086 8.68 17.022 8.68zM15.225 6.916l1.798.725 2.139-.86-1.8-.725L15.225 6.916z"/></svg>