<svg xmlns="http://www.w3.org/2000/svg" enable-background="new 0 0 24 24" viewBox="0 0 24 24"><path d="M5.236,23.999C3.806,23.941,0.159,23.788,0,18.9c-0.003-0.09,0.018-0.178,0.061-0.256l1.577-2.893c0.092-0.168,0.276-0.276,0.463-0.26c0.192,0.009,0.361,0.127,0.436,0.303l2.646,6.217l2.242-7.354c-0.002-0.077,0.014-0.154,0.05-0.226c0.112-0.217,0.381-0.351,0.612-0.275l8.008,2.573l-2.063-8.123c-0.036-0.144-0.007-0.297,0.081-0.416c0.087-0.12,0.224-0.195,0.372-0.205l7.198-0.467l-5.688-4.665C15.868,2.75,15.8,2.589,15.814,2.424c0.015-0.164,0.109-0.312,0.253-0.392l3.506-1.968c0.133-0.075,0.293-0.084,0.43-0.028c2.602,0.49,4.01,2.237,3.984,4.937c0.01,0.046,0.014,0.095,0.01,0.145L22.69,22.365c-0.019,0.247-0.216,0.443-0.464,0.461L5.236,23.999z M1.005,19.002c0.155,3.24,2.055,3.817,3.492,3.954l-2.477-5.818L1.005,19.002z M8.284,15.271l-2.342,7.68l15.784-1.092l1.017-13.405l-7.593,0.492l2.139,8.414c0.045,0.177-0.009,0.363-0.142,0.488c-0.133,0.125-0.324,0.168-0.496,0.111L8.284,15.271z M17.196,2.546l5.644,4.631l0.152-1.998c-0.004-0.027-0.006-0.056-0.005-0.084c0.066-2.271-0.975-3.637-3.094-4.062L17.196,2.546z"/><path d="M3.601,15.831c-0.006,0-0.012,0-0.017,0c-0.83-0.003-1.499-0.257-1.988-0.755c-2.073-2.1,0.134-6.787,3.465-10.106c2.727-2.722,5.922-4.477,8.148-4.477c0.006,0,0.012,0,0.018,0c0.861,0.004,1.552,0.265,2.054,0.774c2.096,2.127-0.251,6.738-3.523,9.997C8.974,14.041,5.775,15.831,3.601,15.831z M13.208,1.493c-1.944,0-4.931,1.679-7.439,4.182c-3.294,3.283-4.878,7.266-3.461,8.699v0.001c0.296,0.301,0.727,0.454,1.281,0.456c1.919,0.04,4.891-1.71,7.463-4.275c3.333-3.319,4.911-7.171,3.517-8.587c-0.309-0.312-0.762-0.473-1.347-0.476C13.218,1.493,13.213,1.493,13.208,1.493z"/></svg>