<svg xmlns="http://www.w3.org/2000/svg" enable-background="new 0 0 24 24" viewBox="0 0 24 24"><path d="M12,22.5c-0.179,0-0.344-0.096-0.434-0.251L0.066,2.254C-0.022,2.1-0.022,1.909,0.067,1.755C0.157,1.6,0.321,1.505,0.5,1.505h4.534C5.056,1.502,5.08,1.5,5.103,1.5h4.241c0.179,0,0.344,0.096,0.434,0.251L12,5.615l2.226-3.865c0.089-0.154,0.254-0.25,0.433-0.25H18.9c0.026,0,0.051,0.002,0.076,0.006H23.5c0.179,0,0.343,0.095,0.433,0.25c0.089,0.154,0.09,0.345,0.001,0.499l-11.5,19.994C12.344,22.404,12.179,22.5,12,22.5z M1.364,2.505L12,20.997L22.636,2.506h-3.739c-0.026,0-0.051-0.002-0.076-0.006h-3.873l-2.515,4.367c-0.089,0.154-0.254,0.25-0.433,0.25l0,0c-0.179,0-0.344-0.096-0.434-0.251L9.055,2.5H5.172C5.15,2.503,5.126,2.505,5.103,2.505H1.364z"/></svg>