<svg xmlns="http://www.w3.org/2000/svg" enable-background="new 0 0 24 24" viewBox="0 0 24 24"><path d="m3 18c-.115 0-.229-.04-.321-.117-.152-.128-.215-.333-.158-.524.218-.74.443-1.481.676-2.215-2.212-1.75-3.371-4.159-3.189-6.657.19-2.626 1.824-5.003 4.368-6.357 2.705-1.433 5.989-1.514 8.782-.216 2.446 1.136 4.146 3.148 4.661 5.521.059.27-.112.536-.382.595-.271.059-.536-.112-.595-.382-.449-2.064-1.945-3.824-4.105-4.827-2.51-1.166-5.461-1.095-7.892.192-2.24 1.191-3.675 3.265-3.841 5.546-.166 2.288.925 4.418 3.072 5.999.174.127.246.352.18.556-.144.448-.285.899-.424 1.352.018-.01.035-.021.053-.031.544-.321 1.106-.654 1.721-.898.104-.042.22-.048.328-.015.583.174 1.152.304 1.69.385.273.042.461.296.42.569s-.304.454-.568.42c-.532-.08-1.088-.203-1.657-.366-.483.208-.941.48-1.425.765-.385.228-.771.456-1.172.654-.071.034-.147.051-.222.051z"/><path d="m21.439 23c-.075 0-.151-.017-.222-.052-.327-.162-.644-.345-.959-.529-.39-.228-.76-.443-1.145-.612-4.946 1.386-8.475-1.094-9.667-4.02-1.028-2.522-.449-5.92 3.161-7.829 2.041-1.087 4.479-1.262 6.691-.484 1.973.694 3.472 2.041 4.223 3.792 1.138 2.612.316 5.401-2.141 7.353.188.577.368 1.157.538 1.742.055.19-.008.395-.159.522-.09.078-.204.117-.32.117zm-2.294-2.222c.063 0 .126.012.186.036.45.18.868.414 1.272.648-.092-.289-.186-.578-.282-.865-.068-.207.004-.434.18-.562 2.283-1.667 3.09-4.109 2.104-6.371-.641-1.493-1.932-2.645-3.637-3.245-1.951-.687-4.097-.531-5.889.424-.001 0-.001 0-.002 0-3.269 1.727-3.499 4.617-2.704 6.568 1.043 2.557 4.191 4.707 8.629 3.388.047-.014.095-.021.143-.021zm-6.301-10.377h.01z"/><path d="M21.439 23c-.075 0-.151-.017-.222-.052-.327-.162-.644-.345-.959-.529-.39-.228-.76-.443-1.145-.612-4.946 1.386-8.475-1.094-9.667-4.02-1.028-2.522-.449-5.92 3.161-7.829 2.041-1.087 4.479-1.262 6.691-.484 1.973.694 3.472 2.041 4.223 3.792 1.138 2.612.316 5.401-2.141 7.353.188.577.368 1.157.538 1.742.055.19-.008.395-.159.522-.09.078-.204.117-.32.117zm-2.294-2.222c.063 0 .126.012.186.036.45.18.868.414 1.272.648-.092-.289-.186-.578-.282-.865-.068-.207.004-.434.18-.562 2.283-1.667 3.09-4.109 2.104-6.371-.641-1.493-1.932-2.645-3.637-3.245-1.951-.687-4.097-.531-5.889.424-.001 0-.001 0-.002 0-3.269 1.727-3.499 4.617-2.704 6.568 1.043 2.557 4.191 4.707 8.629 3.388.047-.014.095-.021.143-.021zm-6.301-10.377h.01zM5.5 8c-.827 0-1.5-.673-1.5-1.5s.673-1.5 1.5-1.5 1.5.673 1.5 1.5-.673 1.5-1.5 1.5zm0-2c-.275 0-.5.224-.5.5s.225.5.5.5.5-.224.5-.5-.225-.5-.5-.5zM11.5 8c-.827 0-1.5-.673-1.5-1.5s.673-1.5 1.5-1.5 1.5.673 1.5 1.5-.673 1.5-1.5 1.5zm0-2c-.275 0-.5.224-.5.5s.225.5.5.5.5-.224.5-.5-.225-.5-.5-.5z"/><path d="M13.5 16c-.827 0-1.5-.673-1.5-1.5s.673-1.5 1.5-1.5 1.5.673 1.5 1.5-.673 1.5-1.5 1.5zm0-2c-.275 0-.5.224-.5.5s.225.5.5.5.5-.224.5-.5-.225-.5-.5-.5zM19.5 16c-.827 0-1.5-.673-1.5-1.5s.673-1.5 1.5-1.5 1.5.673 1.5 1.5-.673 1.5-1.5 1.5zm0-2c-.275 0-.5.224-.5.5s.225.5.5.5.5-.224.5-.5-.225-.5-.5-.5z"/></svg>