<svg id="svg" xmlns="http://www.w3.org/2000/svg" xmlns:xlink="http://www.w3.org/1999/xlink" width="100%" height="100%" viewBox="0, 0, 400, 400">
    <g id="svg">
        <path id="path0" d="M126.816 1.338 C 126.186 2.075,124.364 7.667,122.768 13.767 C 119.181 27.468,120.646 25.983,107.273 29.481 C 94.670 32.777,92.006 34.371,92.885 38.088 C 93.669 41.404,95.412 42.276,107.686 45.493 L 119.306 48.539 120.401 52.377 C 121.003 54.487,122.413 59.656,123.533 63.862 C 126.175 73.775,126.936 74.952,130.708 74.952 C 134.735 74.952,135.020 74.441,138.669 60.715 L 141.874 48.655 153.969 45.413 C 167.697 41.733,168.260 41.420,168.260 37.476 C 168.260 33.515,167.601 33.146,153.942 29.459 L 141.910 26.212 138.666 14.171 C 136.883 7.548,135.026 1.650,134.540 1.065 C 133.267 -0.468,128.209 -0.289,126.816 1.338 M132.216 30.405 C 133.245 34.022,135.117 35.577,139.381 36.356 C 142.800 36.981,142.542 37.874,138.738 38.587 C 135.205 39.250,132.558 41.897,131.895 45.430 C 131.181 49.234,130.289 49.492,129.664 46.074 C 128.859 41.666,127.321 39.884,123.493 38.920 C 119.034 37.797,118.631 37.006,122.186 36.356 C 126.672 35.536,128.229 34.119,129.321 29.856 C 130.422 25.562,130.863 25.645,132.216 30.405 M189.473 40.081 C 188.882 40.673,186.905 46.782,185.080 53.657 C 181.065 68.785,183.238 66.574,168.451 70.582 C 155.396 74.120,152.964 75.407,152.964 78.776 C 152.964 82.133,155.319 83.378,168.711 87.096 L 181.446 90.631 185.059 103.897 C 188.803 117.642,189.288 118.523,193.117 118.523 C 196.945 118.523,197.431 117.642,201.174 103.897 L 204.787 90.631 217.522 87.096 C 230.914 83.378,233.270 82.133,233.270 78.776 C 233.270 75.407,230.838 74.120,217.782 70.582 C 202.995 66.574,205.168 68.785,201.153 53.657 C 197.549 40.078,196.961 39.006,193.117 39.006 C 191.704 39.006,190.065 39.490,189.473 40.081 M194.970 71.216 C 195.098 73.902,198.063 76.367,202.309 77.317 C 207.576 78.495,207.576 79.057,202.309 80.236 C 198.063 81.186,195.098 83.651,194.970 86.336 C 194.938 87.016,194.481 88.948,193.954 90.631 L 192.998 93.690 191.963 89.220 C 190.548 83.103,188.998 81.371,183.924 80.236 C 181.618 79.720,179.732 79.063,179.732 78.776 C 179.732 78.490,181.618 77.833,183.924 77.317 C 188.998 76.181,190.548 74.449,191.963 68.332 L 192.998 63.862 193.954 66.922 C 194.481 68.604,194.938 70.537,194.970 71.216 M95.266 71.382 C 94.299 72.089,92.319 78.113,88.807 91.031 L 83.742 109.660 66.051 114.412 C 56.321 117.025,47.632 119.553,46.742 120.029 C 44.820 121.058,44.460 126.186,46.189 127.915 C 47.072 128.798,80.841 138.432,83.053 138.432 C 83.437 138.432,85.963 146.711,88.667 156.830 C 94.184 177.475,94.306 177.744,98.200 177.744 C 102.387 177.744,102.764 176.957,108.066 157.170 L 112.984 138.815 131.517 133.828 C 150.698 128.666,152.199 127.969,152.199 124.222 C 152.199 120.488,150.231 119.571,131.549 114.601 C 121.663 111.971,113.373 109.529,113.125 109.174 C 112.877 108.819,110.504 100.443,107.853 90.560 C 102.373 70.138,100.620 67.467,95.266 71.382 M101.332 106.722 C 102.766 112.102,104.402 116.967,104.968 117.533 C 105.534 118.099,110.445 119.781,115.881 121.271 C 121.317 122.761,125.867 124.082,125.992 124.207 C 126.117 124.332,121.876 125.579,116.567 126.978 C 104.213 130.232,104.548 129.907,101.289 141.850 C 99.800 147.305,98.488 151.863,98.372 151.978 C 98.257 152.093,97.026 147.730,95.638 142.281 C 92.564 130.221,92.863 130.517,80.160 126.975 L 70.062 124.159 79.964 121.570 C 92.356 118.330,92.323 118.362,95.604 106.150 C 97.040 100.804,98.330 96.545,98.470 96.685 C 98.610 96.825,99.898 101.342,101.332 106.722 M219.885 106.624 C 217.961 107.494,215.553 111.433,204.971 131.024 L 192.352 154.387 146.762 176.897 L 101.172 199.407 85.733 217.885 C 60.549 248.026,60.716 245.144,83.537 255.818 L 97.859 262.517 98.069 304.086 C 98.273 344.494,98.322 345.699,99.809 347.176 C 102.234 349.585,225.865 400.005,229.282 399.978 C 233.795 399.942,326.613 358.914,327.890 356.389 C 328.638 354.911,328.852 339.049,328.861 284.316 L 328.872 214.138 341.591 190.741 C 355.293 165.538,356.179 163.105,352.870 159.796 C 351.319 158.245,228.389 106.831,224.246 106.001 C 223.110 105.773,221.147 106.053,219.885 106.624 M282.983 144.313 C 313.059 156.753,337.911 167.146,338.208 167.410 C 339.084 168.185,319.196 203.857,318.035 203.593 C 317.475 203.466,293.098 193.179,263.862 180.733 C 234.627 168.287,209.776 157.708,208.638 157.223 L 206.568 156.342 216.235 138.564 C 223.717 124.806,226.174 120.889,227.101 121.241 C 227.759 121.491,252.906 131.874,282.983 144.313 M284.321 203.975 C 295.784 208.860,305.163 213.077,305.163 213.347 C 305.163 213.616,288.502 222.356,268.139 232.769 L 231.115 251.701 175.987 228.200 C 145.667 215.274,120.941 204.632,121.042 204.550 C 121.142 204.468,138.347 195.964,159.275 185.652 L 197.326 166.903 230.403 180.998 C 248.595 188.751,272.859 199.090,284.321 203.975 M164.233 237.685 C 194.619 250.610,219.399 261.419,219.300 261.704 C 219.201 261.989,213.958 268.140,207.648 275.373 C 201.338 282.606,195.482 289.368,194.635 290.399 L 193.093 292.275 138.803 266.879 C 108.943 252.911,84.398 241.385,84.258 241.265 C 83.508 240.621,106.814 213.499,107.839 213.823 C 108.470 214.022,133.848 224.760,164.233 237.685 M314.918 286.569 L 314.723 349.046 284.512 362.319 C 267.897 369.619,250.084 377.445,244.928 379.711 L 235.555 383.830 235.751 324.105 L 235.946 264.380 274.952 244.312 C 296.405 233.274,314.218 224.209,314.536 224.168 C 314.854 224.126,315.026 252.206,314.918 286.569 M152.261 287.954 C 194.235 307.621,196.417 308.423,199.426 305.305 C 200.163 304.543,205.583 298.358,211.472 291.561 L 222.180 279.203 222.381 305.623 C 222.492 320.154,222.492 343.693,222.381 357.932 L 222.180 383.820 166.922 361.154 L 111.663 338.488 111.663 303.852 C 111.663 284.802,111.800 269.216,111.966 269.216 C 112.133 269.216,130.265 277.648,152.261 287.954 " stroke="none" fill="currentColor" fill-rule="evenodd"></path>
    </g>
</svg>